<svg xmlns="http://www.w3.org/2000/svg" viewBox="0 0 265.51 258.2"><title>Asset 32</title><g id="Layer_2" data-name="Layer 2"><g id="Layer_1-2" data-name="Layer 1"><path d="M39.49,28.75H90a49.3,49.3,0,1,0,85.3,0h50.48a35.38,35.38,0,0,1,35.39,35.39V218.71a35.39,35.39,0,0,1-35.39,35.39H39.49A35.4,35.4,0,0,1,4.1,218.71V64.14A35.39,35.39,0,0,1,39.49,28.75Z" style="fill:none;stroke:#fa5458;stroke-linecap:round;stroke-linejoin:round;stroke-width:8.19999980926514px"/><path d="M53.47,102.69a26.32,26.32,0,0,1,19,8.17,83.16,83.16,0,0,0,120.27,0,26.31,26.31,0,0,1,19-8.17h0a12.84,12.84,0,0,1,12.83,12.84v90.52a12.84,12.84,0,0,1-12.83,12.84H53.47a12.84,12.84,0,0,1-12.84-12.84V115.53a12.84,12.84,0,0,1,12.84-12.84Z" style="fill:none;stroke:#fa5458;stroke-linecap:round;stroke-linejoin:round;stroke-width:8.19999980926514px"/><circle cx="132.62" cy="53.4" r="49.3" style="fill:none;stroke:#fa5458;stroke-linecap:round;stroke-linejoin:round;stroke-width:8.19999980926514px"/><path d="M132.62,49.55a3.85,3.85,0,1,1-3.85,3.85,3.85,3.85,0,0,1,3.85-3.85m0-8.2a12.05,12.05,0,1,0,12,12,12.05,12.05,0,0,0-12-12Z" style="fill:#fa5458"/><line x1="128.76" y1="46.53" x2="117.75" y2="25.68" style="fill:none;stroke:#fa5458;stroke-linecap:round;stroke-linejoin:round;stroke-width:8.19999980926514px"/><rect x="4.41" y="152.65" width="257" height="46" transform="translate(265.82 351.31) rotate(-180)" style="fill:#fff;stroke:#fa5458;stroke-linecap:round;stroke-linejoin:round;stroke-width:8.19999980926514px"/><line x1="23.41" y1="155.39" x2="23.41" y2="169.65" style="fill:none;stroke:#fa5458;stroke-linecap:round;stroke-linejoin:round;stroke-width:8.19999980926514px"/><line x1="50.78" y1="155.39" x2="50.78" y2="185.65" style="fill:none;stroke:#fa5458;stroke-linecap:round;stroke-linejoin:round;stroke-width:8.19999980926514px"/><line x1="78.16" y1="155.39" x2="78.16" y2="169.65" style="fill:none;stroke:#fa5458;stroke-linecap:round;stroke-linejoin:round;stroke-width:8.19999980926514px"/><line x1="105.53" y1="155.39" x2="105.53" y2="185.65" style="fill:none;stroke:#fa5458;stroke-linecap:round;stroke-linejoin:round;stroke-width:8.19999980926514px"/><line x1="132.91" y1="155.39" x2="132.91" y2="169.65" style="fill:none;stroke:#fa5458;stroke-linecap:round;stroke-linejoin:round;stroke-width:8.19999980926514px"/><line x1="160.28" y1="155.39" x2="160.28" y2="185.65" style="fill:none;stroke:#fa5458;stroke-linecap:round;stroke-linejoin:round;stroke-width:8.19999980926514px"/><line x1="187.66" y1="155.39" x2="187.66" y2="169.65" style="fill:none;stroke:#fa5458;stroke-linecap:round;stroke-linejoin:round;stroke-width:8.19999980926514px"/><line x1="215.03" y1="155.39" x2="215.03" y2="185.65" style="fill:none;stroke:#fa5458;stroke-linecap:round;stroke-linejoin:round;stroke-width:8.19999980926514px"/><line x1="242.41" y1="155.39" x2="242.41" y2="169.65" style="fill:none;stroke:#fa5458;stroke-linecap:round;stroke-linejoin:round;stroke-width:8.19999980926514px"/></g></g></svg>