<svg xmlns="http://www.w3.org/2000/svg" viewBox="0 0 200.21 258.2"><title>Asset 38</title><g id="Layer_2" data-name="Layer 2"><g id="Layer_1-2" data-name="Layer 1"><path d="M168,226h0a96,96,0,0,0,9.53-124.65L109.84,9A12.07,12.07,0,0,0,90.36,9L22.69,101.33A96,96,0,0,0,32.22,226h0A96,96,0,0,0,168,226Z" style="fill:none;stroke:#fa5458;stroke-linecap:round;stroke-linejoin:round;stroke-width:8.19999980926514px"/><circle cx="92.23" cy="179.64" r="44.85" style="fill:none;stroke:#fa5458;stroke-linecap:round;stroke-linejoin:round;stroke-width:8.19999980926514px"/><path d="M73.62,191.56a24.33,24.33,0,0,1,3.31-4.62,66.37,66.37,0,0,1,4.8-4.67c1.82-1.6,3.06-2.72,3.74-3.36a8.65,8.65,0,0,0,1.6-2,4.38,4.38,0,0,0,.59-2.24q0-3.15-4.33-3.15a21.37,21.37,0,0,0-8.64,1.92V163.8a24.64,24.64,0,0,1,5.36-1.49,36.18,36.18,0,0,1,6.27-.54c4.28,0,7.52,1,9.75,3a10.43,10.43,0,0,1,3.34,8.17,11.45,11.45,0,0,1-1.15,5.47,18.49,18.49,0,0,1-4,4.67l-1,.86c-.78.67-1.56,1.38-2.32,2.11a11.62,11.62,0,0,0-1.68,1.89H99.67v8.76h-26Z" style="fill:#fa5458"/><circle cx="55.46" cy="112.12" r="13.33" style="fill:none;stroke:#fa5458;stroke-linecap:round;stroke-linejoin:round;stroke-width:8.19999980926514px"/></g></g></svg>