<svg xmlns="http://www.w3.org/2000/svg" viewBox="0 0 306.71 258.2"><title>Asset 34</title><g id="Layer_2" data-name="Layer 2"><g id="Layer_1-2" data-name="Layer 1"><path d="M280.32,26.4h0a76.14,76.14,0,0,0-107.67,0l-7.46,7.46a16.72,16.72,0,0,1-23.65,0l-7.46-7.46a76.14,76.14,0,0,0-107.67,0h0a76.14,76.14,0,0,0,0,107.67l19.29,19.29,95.84,95.84a16.72,16.72,0,0,0,23.65,0L261,153.36l19.29-19.29A76.14,76.14,0,0,0,280.32,26.4Z" style="fill:none;stroke:#fa5458;stroke-linecap:round;stroke-linejoin:round;stroke-width:8.19999980926514px"/><path d="M35.85,141.77H91.66l25.69-76a3.64,3.64,0,0,1,6.93.13l34,113.67a3.64,3.64,0,0,0,6.91.2l27-74a3.64,3.64,0,0,1,6.65-.43l18.94,36.41h52.55" style="fill:none;stroke:#fa5458;stroke-linecap:round;stroke-linejoin:round;stroke-width:8.19999980926514px"/></g></g></svg>