<svg xmlns="http://www.w3.org/2000/svg" viewBox="0 0 301.97 402.17"><defs><style>.cls-1{fill:#f3f3f3;}</style></defs><title>Asset 17</title><g id="Layer_2" data-name="Layer 2"><g id="Layer_1-2" data-name="Layer 1"><path class="cls-1" d="M104,398.68a11.4,11.4,0,0,1-6.49-2,.86.86,0,0,0-.5-.16.79.79,0,0,0-.4.1A11.6,11.6,0,0,1,92.82,398a12.06,12.06,0,0,1-2.16.2c-6.15,0-11.5-4.72-12.72-11.23a13.75,13.75,0,0,1,4.69-13.23C77.31,367.12,71.89,356,65.5,338.64c-13.71-37.14-12.08-65.7-8.09-91-.24-.39-.45-.79-.66-1.16l-.36-.67c-.32-.37-.65-.72-.94-1A71.28,71.28,0,0,1,46.34,242a43.67,43.67,0,0,1-16.9-10.18c-6.5-6.06-9.27-12.91-7.81-19.28,2.08-9,11.54-9.73,21.56-10.48,6.57-.5,14-1.06,21.52-3.58a14.25,14.25,0,0,1,2.44-.55q.72-3.67,1.42-7.44c.36-2-.78-7-2-12.28-2.25-9.84-5.5-24.1-4.32-39.38A36.59,36.59,0,0,1,58,140.13a41.39,41.39,0,0,1-9.71,1.16c-20.49,0-38.36-14.73-43.45-35.81C-1.11,80.73,13,56,36.34,50.37a25.48,25.48,0,0,1,5.92-.71c14,0,24.49,11.57,33.78,21.77C80.33,76.14,84.38,80.59,88,82.9a19.91,19.91,0,0,1,3.89,3.22c1.37-1.05,2.8-2.08,4.27-3.1l-3-2.9.62-2c6.82-22.42,34.08-34.22,35.24-34.71l.57-.24.63,0c2-.1,3.93-.15,5.84-.15,29.93,0,41.72,11.82,42.21,12.33l.42.44.25.55a9.29,9.29,0,0,1,.77,4.43,66.14,66.14,0,0,1,8.09,2.08c.12-.32.25-.64.38-.95,1.71-3.93,2.59-9.88,3.53-16.18,2.24-15,5-33.6,21.25-39.6A41.19,41.19,0,0,1,227.29,3.5c18.62,0,35.7,12.38,42.5,30.8,8.82,23.88-2.33,50.07-24.85,58.38a46.38,46.38,0,0,1-15.79,2.51H228.1c10.67,15.35,20,36,28.54,62.7,1.17,3.68,2,11.67,2.52,18.36,2.92,1.7,6.15,3.77,7.68,5.41,5.39,5.79,11.67,9.83,17.21,13.4,8.44,5.44,16.42,10.58,13.94,19.5s-13.19,14.63-27.88,14.63a62,62,0,0,1-9.49-.75c-.34,35.79-3.64,110.67-24.3,139.93l.28.24a16.6,16.6,0,0,1,5.35,7.7c2.55,7,1.14,13.2-3.35,14.86a6.2,6.2,0,0,1-3.81.15h-.16a.74.74,0,0,0-.62.33,11.34,11.34,0,0,1-5.41,4.25,11.51,11.51,0,0,1-8.73-.36.79.79,0,0,0-.9.09,11.47,11.47,0,0,1-3.52,2.05,11.75,11.75,0,0,1-4.1.74,13.54,13.54,0,0,1-12.43-9.1,13.79,13.79,0,0,1,1.79-13.11c-17.3-8.86-32.55-13.16-46.54-13.16-15.29,0-26.35,5.28-35.31,10.24a16.64,16.64,0,0,1,3.69,8.17,18.23,18.23,0,0,1-.27,8.34c-.94,3.17-3,5.27-5.54,5.75A6.23,6.23,0,0,1,113,395a.86.86,0,0,0-.27,0,.76.76,0,0,0-.56.24,11.2,11.2,0,0,1-8.09,3.46Z"/><path class="cls-1" d="M227.29,7C244,7,260,18,266.51,35.51c8.16,22.1-2,46.23-22.78,53.89a42.76,42.76,0,0,1-14.59,2.29,61.81,61.81,0,0,1-8.43-.59c12.78,16,23.35,38.77,32.59,67.84.92,2.87,1.81,9.77,2.51,19.42,3.7,2.07,7.19,4.3,8.46,5.67,14,15,33.37,18.74,30.35,29.58-2.13,7.65-11.95,12.06-24.51,12.06a61.15,61.15,0,0,1-13-1.44C256.94,277,251.21,345.56,231.4,369a4.65,4.65,0,0,1,1.79,1.12,8.08,8.08,0,0,0,1.27,1.21,13.19,13.19,0,0,1,4.19,6.09c1.79,4.84,1.22,9.51-1.26,10.43a3,3,0,0,1-.93.16,2.72,2.72,0,0,1-.8-.12,4.46,4.46,0,0,0-1-.13,4.25,4.25,0,0,0-3.53,1.88,7.87,7.87,0,0,1-3.73,2.93,8.12,8.12,0,0,1-2.7.47,8,8,0,0,1-3.34-.73,4.29,4.29,0,0,0-4.58.56,8.34,8.34,0,0,1-5.41,2,10,10,0,0,1-9.14-6.81c-1.92-5.2.33-10.83,5-12.59-.89-.37-1.81-.8-2.74-1.29-20.65-10.91-37-14.68-50.32-14.68-18.51,0-31.07,7.31-40.94,12.89a4.65,4.65,0,0,1,1.72,1.49,8.39,8.39,0,0,0,1,1.4,13.19,13.19,0,0,1,3.1,6.71c1,5.08-.4,9.58-3,10.07a3.73,3.73,0,0,1-.47,0,2.85,2.85,0,0,1-1.24-.29,4.25,4.25,0,0,0-4.78,1,7.77,7.77,0,0,1-4.17,2.26,8.27,8.27,0,0,1-1.4.12,8,8,0,0,1-4.51-1.39,4.33,4.33,0,0,0-4.61-.22,8.36,8.36,0,0,1-2.74,1,8.77,8.77,0,0,1-1.52.14c-4.38,0-8.36-3.47-9.28-8.37-1-5.41,2.12-10.54,7-11.53-5.76-5.23-11.84-16.45-19.58-37.41C56,302.71,56.44,275.62,61.06,247a2.86,2.86,0,0,0-.07-.28,29.62,29.62,0,0,1-1.73-2.92,22.84,22.84,0,0,0-2-2.08,2.94,2.94,0,0,0-.61-.22,67.4,67.4,0,0,1-9.15-2.8,39.76,39.76,0,0,1-15.65-9.41c-5.36-5-8.06-10.67-6.84-16,2.52-11,21.33-5,40.78-11.53a20.59,20.59,0,0,1,4.26-.69c.65-3.26,1.3-6.59,1.93-10,1.4-7.52-9.8-31.81-5.54-58.1a38.22,38.22,0,0,1-9.26,3.71,37.71,37.71,0,0,1-8.89,1.07c-18.34,0-35.28-13.4-40-33.14C2.74,81.75,15.67,59,37.16,53.78a21.73,21.73,0,0,1,5.1-.62c18.75,0,32,25.12,43.83,32.69a15,15,0,0,1,5.13,5.26,98.94,98.94,0,0,1,10.48-7.56L97.14,79.1C103.56,58,130.4,46.6,130.4,46.6c2-.09,3.85-.14,5.67-.14,28.79,0,39.69,11.26,39.69,11.26a7.91,7.91,0,0,1-.21,5.86,62.49,62.49,0,0,1,14.64,3.78,16.82,16.82,0,0,1,1.21-4.13c6.08-14,2-46.23,22.78-53.89A37.76,37.76,0,0,1,227.29,7m0-7V0a44.55,44.55,0,0,0-15.53,2.78c-18.18,6.71-21.26,27.32-23.5,42.37a96.26,96.26,0,0,1-2.57,13.35c-.87-.23-1.75-.45-2.63-.66a12.12,12.12,0,0,0-.92-3l-.5-1.11-.85-.88c-1.32-1.37-13.85-13.39-44.72-13.39-2,0-4,0-6,.15l-1.25.06-1.15.49c-1.22.52-29.92,12.94-37.22,36.91l-.82,2.72c-3.17-2.13-7-6.3-11-10.72-9.3-10.2-20.87-22.91-36.37-22.91a28.69,28.69,0,0,0-6.74.81C10.31,53.06-5,79.68,1.47,106.3A51.56,51.56,0,0,0,18.78,134a46.93,46.93,0,0,0,29.54,10.75,45.12,45.12,0,0,0,10.21-1.18C58.25,157.42,61.12,170,63.17,179c1,4.18,2.14,9.39,2,10.9s-.63,3.34-1,5.1l-.56.17c-7.08,2.39-14.3,2.93-20.67,3.41-10.33.78-22,1.66-24.7,13.19-1.75,7.62,1.37,15.63,8.79,22.58a46.88,46.88,0,0,0,18.13,10.94,73.07,73.07,0,0,0,8.42,2.68l.11.2.09.17c-3.92,25.46-5.31,54.24,8.46,91.54,5.85,15.87,10.84,26.55,15.8,33.63a17.43,17.43,0,0,0-3.52,14.17c1.53,8.16,8.32,14.09,16.16,14.09a15.26,15.26,0,0,0,6.28-1.35,15,15,0,0,0,7.1,1.78,14.34,14.34,0,0,0,2.62-.23h.08a14.81,14.81,0,0,0,6.6-3.07,9.82,9.82,0,0,0,2.29.27,10,10,0,0,0,1.64-.14h.11c6.69-1.25,10.31-8.85,8.62-18.11a20.06,20.06,0,0,0-2.1-6.34c8.12-4.24,17.57-8,30.27-8s26.23,3.65,41.68,11.15a17.55,17.55,0,0,0-.21,12.83,17,17,0,0,0,15.71,11.39,15.25,15.25,0,0,0,5.31-.95,15.48,15.48,0,0,0,3.24-1.66,14.93,14.93,0,0,0,9.84-.11h.08a14.77,14.77,0,0,0,6-4.14l.65,0a9.89,9.89,0,0,0,3.24-.55l.06,0,.05,0c6.38-2.36,8.66-10.47,5.45-19.31a19.83,19.83,0,0,0-4.38-7.33c7.78-12.48,13.71-32.33,17.67-59.17s5.22-55,5.53-76.25c2,.19,4.05.28,6,.28,16.33,0,28.31-6.58,31.26-17.19,3.16-11.39-6.71-17.76-15.43-23.37-5.36-3.46-11.45-7.38-16.54-12.85a34.33,34.33,0,0,0-6.9-5.11c-.7-8.44-1.55-14.26-2.53-17.33-7.67-24.14-16.07-43.38-25.51-58.36a45.84,45.84,0,0,0,11.7-2.5c24.32-9,36.4-37.18,26.92-62.88C265.77,13.3,247.37,0,227.29,0Z"/></g></g></svg>