<?xml version="1.0" encoding="utf-8"?>
<!-- Generator: Adobe Illustrator 23.0.3, SVG Export Plug-In . SVG Version: 6.00 Build 0)  -->
<svg version="1.1" id="Layer_1" xmlns="http://www.w3.org/2000/svg" xmlns:xlink="http://www.w3.org/1999/xlink" x="0px" y="0px"
	 viewBox="0 0 302 402.2" style="enable-background:new 0 0 302 402.2;" xml:space="preserve">
<style type="text/css">
	.st0{fill:#F3F3F3;}
	.st1{fill:#F19FA3;}
	.st2{fill:#FFFFFF;}
	.st3{fill:none;}
	.st4{fill:none;stroke:#6B3906;stroke-width:1.62;stroke-linecap:round;stroke-linejoin:round;}
	.st5{fill:#F3EAEB;}
	.st6{fill:#FAD9DA;}
	.st7{fill:#6B3906;}
	.st8{fill:#D94E3D;}
	.st9{fill:#6B3906;stroke:#6B3906;stroke-width:1.62;stroke-miterlimit:10;}
</style>
<title>Asset 18</title>
<g>
	<g id="Layer_1-2">
		<path class="st0" d="M104,398.7c-2.3,0-4.6-0.7-6.5-2c-0.1-0.1-0.3-0.2-0.5-0.2c-0.1,0-0.3,0-0.4,0.1c-1.2,0.7-2.5,1.1-3.8,1.4
			c-0.7,0.1-1.4,0.2-2.2,0.2c-6.2,0-11.5-4.7-12.7-11.2c-1-4.9,0.8-10,4.7-13.2c-5.3-6.6-10.7-17.7-17.1-35.1
			c-13.7-37.1-12.1-65.7-8.1-91c-0.2-0.4-0.5-0.8-0.7-1.2l-0.4-0.7c-0.3-0.4-0.7-0.7-0.9-1c-3.1-0.7-6.1-1.7-9.1-2.8
			c-6.3-2.1-12.1-5.5-16.9-10.2c-6.5-6.1-9.3-12.9-7.8-19.3c2.1-9,11.5-9.7,21.6-10.5c6.6-0.5,14-1.1,21.5-3.6
			c0.8-0.3,1.6-0.4,2.4-0.6c0.5-2.4,1-4.9,1.4-7.4c0.4-2-0.8-7-2-12.3c-2.2-9.8-5.5-24.1-4.3-39.4c-1.4,0.5-2.8,1-4.3,1.3
			c-3.2,0.8-6.4,1.2-9.7,1.2c-20.5,0-38.4-14.7-43.5-35.8C-1.1,80.7,13,56,36.3,50.4c1.9-0.5,3.9-0.7,5.9-0.7
			c14,0,24.5,11.6,33.8,21.8c4.3,4.7,8.3,9.2,12,11.5c1.4,0.9,2.7,2,3.9,3.2c1.4-1.1,2.8-2.1,4.3-3.1l-3-2.9l0.6-2
			c6.8-22.4,34.1-34.2,35.2-34.7l0.6-0.2h0.6c2-0.1,3.9-0.2,5.8-0.2c29.9,0,41.7,11.8,42.2,12.3l0.4,0.4l0.2,0.5
			c0.6,1.4,0.9,2.9,0.8,4.4c2.7,0.5,5.4,1.2,8.1,2.1c0.1-0.3,0.2-0.6,0.4-1c1.7-3.9,2.6-9.9,3.5-16.2c2.2-15,5-33.6,21.2-39.6
			c4.6-1.7,9.4-2.6,14.3-2.6c18.6,0,35.7,12.4,42.5,30.8c8.8,23.9-2.3,50.1-24.9,58.4c-5.1,1.7-10.4,2.6-15.8,2.5h-1
			c10.7,15.3,20,36,28.5,62.7c1.2,3.7,2,11.7,2.5,18.4c2.9,1.7,6.1,3.8,7.7,5.4c5.4,5.8,11.7,9.8,17.2,13.4
			c8.4,5.4,16.4,10.6,13.9,19.5s-13.2,14.6-27.9,14.6c-3.2,0-6.4-0.3-9.5-0.8c-0.3,35.8-3.6,110.7-24.3,139.9l0.3,0.2
			c2.5,2,4.3,4.7,5.4,7.7c2.6,7,1.1,13.2-3.4,14.9c-1.2,0.4-2.6,0.5-3.8,0.1h-0.2c-0.2,0-0.5,0.1-0.6,0.3c-1.3,1.9-3.2,3.4-5.4,4.2
			c-2.8,1-6,0.9-8.7-0.4c-0.3-0.2-0.6-0.1-0.9,0.1c-1,0.9-2.2,1.6-3.5,2c-1.3,0.5-2.7,0.7-4.1,0.7c-5.6-0.2-10.6-3.8-12.4-9.1
			c-1.7-4.4-1-9.3,1.8-13.1c-17.3-8.9-32.6-13.2-46.5-13.2c-15.3,0-26.3,5.3-35.3,10.2c2,2.3,3.2,5.2,3.7,8.2
			c0.6,2.8,0.5,5.6-0.3,8.3c-0.9,3.2-3,5.3-5.5,5.8c-1.3,0.2-2.6,0-3.7-0.5c-0.1,0-0.2,0-0.3,0c-0.2,0-0.4,0.1-0.6,0.2
			C110.1,397.4,107.1,398.7,104,398.7L104,398.7z"/>
		<path class="st0" d="M227.3,7C244,7,260,18,266.5,35.5c8.2,22.1-2,46.2-22.8,53.9c-4.7,1.6-9.6,2.4-14.6,2.3
			c-2.8,0-5.6-0.2-8.4-0.6c12.8,16,23.4,38.8,32.6,67.8c0.9,2.9,1.8,9.8,2.5,19.4c3.7,2.1,7.2,4.3,8.5,5.7
			c14,15,33.4,18.7,30.4,29.6c-2.1,7.6-12,12.1-24.5,12.1c-4.4,0-8.7-0.5-13-1.4c-0.2,52.8-5.9,121.3-25.7,144.8
			c0.7,0.2,1.3,0.6,1.8,1.1c0.4,0.4,0.8,0.9,1.3,1.2c1.9,1.6,3.4,3.7,4.2,6.1c1.8,4.8,1.2,9.5-1.3,10.4c-0.3,0.1-0.6,0.2-0.9,0.2
			c-0.3,0-0.5,0-0.8-0.1c-0.3-0.1-0.7-0.1-1-0.1c-1.4,0-2.7,0.7-3.5,1.9c-0.9,1.3-2.2,2.4-3.7,2.9c-0.9,0.3-1.8,0.5-2.7,0.5
			c-1.2,0-2.3-0.2-3.3-0.7c-1.5-0.7-3.3-0.5-4.6,0.6c-1.5,1.3-3.4,2-5.4,2c-4.2-0.1-7.8-2.9-9.1-6.8c-1.9-5.2,0.3-10.8,5-12.6
			c-0.9-0.4-1.8-0.8-2.7-1.3c-20.6-10.9-37-14.7-50.3-14.7c-18.5,0-31.1,7.3-40.9,12.9c0.7,0.3,1.3,0.9,1.7,1.5c0.3,0.5,0.6,1,1,1.4
			c1.7,1.9,2.7,4.2,3.1,6.7c1,5.1-0.4,9.6-3,10.1c-0.2,0-0.3,0-0.5,0c-0.4,0-0.9-0.1-1.2-0.3c-1.6-0.7-3.6-0.3-4.8,1
			c-1.1,1.2-2.6,2-4.2,2.3c-0.5,0.1-0.9,0.1-1.4,0.1c-1.6,0-3.2-0.5-4.5-1.4c-1.4-1-3.2-1-4.6-0.2c-0.8,0.5-1.8,0.8-2.7,1
			c-0.5,0.1-1,0.1-1.5,0.1c-4.4,0-8.4-3.5-9.3-8.4c-1-5.4,2.1-10.5,7-11.5c-5.8-5.2-11.8-16.5-19.6-37.4
			C56,302.7,56.4,275.6,61.1,247c0-0.1,0-0.2-0.1-0.3c-0.6-0.9-1.2-1.9-1.7-2.9c-0.6-0.7-1.3-1.4-2-2.1c-0.2-0.1-0.4-0.2-0.6-0.2
			c-3.1-0.7-6.2-1.7-9.2-2.8c-5.9-1.9-11.2-5.1-15.6-9.4c-5.4-5-8.1-10.7-6.8-16c2.5-11,21.3-5,40.8-11.5c1.4-0.4,2.8-0.6,4.3-0.7
			c0.7-3.3,1.3-6.6,1.9-10c1.4-7.5-9.8-31.8-5.5-58.1c-2.9,1.6-6,2.9-9.3,3.7c-2.9,0.7-5.9,1.1-8.9,1.1c-18.3,0-35.3-13.4-40-33.1
			C2.7,81.8,15.7,59,37.2,53.8c1.7-0.4,3.4-0.6,5.1-0.6c18.8,0,32,25.1,43.8,32.7c2.1,1.3,3.9,3.1,5.1,5.3c3.3-2.7,6.8-5.3,10.5-7.6
			l-4.6-4.5c6.4-21.1,33.3-32.5,33.3-32.5c2-0.1,3.9-0.1,5.7-0.1c28.8,0,39.7,11.3,39.7,11.3c0.7,1.9,0.6,4-0.2,5.9
			c5,0.7,9.9,1.9,14.6,3.8c0.2-1.4,0.6-2.8,1.2-4.1c6.1-14,2-46.2,22.8-53.9C218.4,7.8,222.8,7,227.3,7 M227.3,0L227.3,0
			c-5.3,0-10.6,0.9-15.5,2.8c-18.2,6.7-21.3,27.3-23.5,42.4c-0.5,4.5-1.4,9-2.6,13.4c-0.9-0.2-1.8-0.5-2.6-0.7c-0.2-1-0.5-2-0.9-3
			l-0.5-1.1l-0.9-0.9c-1.3-1.4-13.9-13.4-44.7-13.4c-2,0-4,0-6,0.2l-1.2,0.1l-1.2,0.5c-1.2,0.5-29.9,12.9-37.2,36.9l-0.8,2.7
			c-3.2-2.1-7-6.3-11-10.7c-9.3-10.2-20.9-22.9-36.4-22.9c-2.3,0-4.5,0.3-6.7,0.8C10.3,53.1-5,79.7,1.5,106.3
			c2.6,10.9,8.7,20.6,17.3,27.7c8.3,6.9,18.8,10.7,29.5,10.8c3.4,0,6.9-0.4,10.2-1.2c-0.3,13.8,2.6,26.4,4.6,35.4
			c1,4.2,2.1,9.4,2,10.9s-0.6,3.3-1,5.1l-0.6,0.2c-7.1,2.4-14.3,2.9-20.7,3.4c-10.3,0.8-22,1.7-24.7,13.2
			c-1.8,7.6,1.4,15.6,8.8,22.6c5.1,5,11.3,8.7,18.1,10.9c2.8,1.1,5.6,2,8.4,2.7l0.1,0.2l0.1,0.2c-3.9,25.5-5.3,54.2,8.5,91.5
			c5.9,15.9,10.8,26.5,15.8,33.6c-3.2,4-4.5,9.2-3.5,14.2c1.5,8.2,8.3,14.1,16.2,14.1c2.2,0,4.3-0.5,6.3-1.4
			c2.2,1.2,4.6,1.8,7.1,1.8c0.9,0,1.8-0.1,2.6-0.2h0.1c2.4-0.5,4.7-1.5,6.6-3.1c0.8,0.2,1.5,0.3,2.3,0.3c0.5,0,1.1,0,1.6-0.1h0.1
			c6.7-1.2,10.3-8.9,8.6-18.1c-0.3-2.2-1.1-4.4-2.1-6.3c8.1-4.2,17.6-8,30.3-8s26.2,3.6,41.7,11.1c-1.7,4.1-1.8,8.7-0.2,12.8
			c2.3,6.7,8.6,11.2,15.7,11.4c1.8,0,3.6-0.3,5.3-1c1.1-0.4,2.2-1,3.2-1.7c3.2,1.1,6.7,1,9.8-0.1h0.1c2.3-0.9,4.4-2.3,6-4.1h0.6
			c1.1,0,2.2-0.2,3.2-0.5h0.1h0.1c6.4-2.4,8.7-10.5,5.4-19.3c-0.9-2.7-2.4-5.2-4.4-7.3c7.8-12.5,13.7-32.3,17.7-59.2
			s5.2-55,5.5-76.2c2,0.2,4,0.3,6,0.3c16.3,0,28.3-6.6,31.3-17.2c3.2-11.4-6.7-17.8-15.4-23.4c-5.4-3.5-11.5-7.4-16.5-12.9
			c-2.1-2-4.4-3.7-6.9-5.1c-0.7-8.4-1.5-14.3-2.5-17.3c-7.7-24.1-16.1-43.4-25.5-58.4c4-0.3,7.9-1.2,11.7-2.5
			c24.3-9,36.4-37.2,26.9-62.9C265.8,13.3,247.4,0,227.3,0z"/>
		<path id="Path_4" class="st1" d="M207.3,375.5L207.3,375.5c0.4-0.2,0.9-0.4,1.2-0.6c2.6-1.9,5.4-3.4,8.4-4.4
			c7.3-2.7,14.1-2.6,16.3-0.3c0.4,0.4,0.8,0.9,1.3,1.2c1.9,1.6,3.4,3.7,4.2,6.1c1.8,4.8,1.2,9.5-1.3,10.4c-0.6,0.2-1.2,0.2-1.7,0
			c-1.7-0.4-3.5,0.3-4.6,1.8c-0.9,1.3-2.2,2.4-3.7,2.9c-2,0.7-4.1,0.6-6-0.3c-1.5-0.7-3.3-0.5-4.6,0.6c-0.7,0.6-1.6,1.1-2.5,1.5
			c-4.7,1.7-10.1-1.1-12-6.3S202.6,377.2,207.3,375.5z"/>
		<path id="Path_5" class="st1" d="M88.5,374.8L88.5,374.8c0.5-0.1,0.9-0.2,1.3-0.4c2.8-1.4,5.9-2.4,9-3c7.6-1.4,14.4-0.2,16.1,2.5
			c0.3,0.5,0.6,1,1,1.4c1.7,1.9,2.7,4.2,3.1,6.7c1,5.1-0.4,9.6-3,10.1c-0.6,0.1-1.2,0-1.7-0.2c-1.6-0.7-3.6-0.3-4.8,1
			c-1.1,1.2-2.6,2-4.2,2.3c-2.1,0.4-4.2-0.1-5.9-1.3c-1.4-1-3.2-1-4.6-0.2c-0.8,0.5-1.8,0.8-2.7,1c-4.9,0.9-9.8-2.8-10.8-8.2
			S83.6,375.7,88.5,374.8z"/>
		<path id="Path_6" class="st2" d="M68.8,337.4c36,97.6,36.1-15.9,135.7,36.8c60.9,32.2,55.3-194.7,48.8-215.3
			C228,79.4,192.7,47.2,129.6,70.2c-96,34.9-55,106.9-57.6,120.9C61.9,245.6,48.2,281.6,68.8,337.4z"/>
		<path id="Path_7" class="st2" d="M244.8,226c2.8,1.2,5.4-3.5,8.6-2.6c19.8,5.5,38.2,1.1,41.2-9.7s-16.4-14.6-30.4-29.7
			c-2.8-3.1-16.6-10.3-19.5-10.7L244.8,226z"/>
		<path id="Path_8" class="st2" d="M62.9,247.9c-3-0.2-3.1-5.7-6.2-6.4c-20-4.6-34.2-17.2-31.6-28.2s21.3-5,40.8-11.5
			c4-1.3,19.5-1.2,22.2-0.1L62.9,247.9z"/>
		<path id="Path_9" class="st3" d="M197.2,241l-6.2,21.7l-10.8,38l-13.7,48.2"/>
		<g id="Group_205">
			<path id="Path_10" class="st2" d="M83,168.2c8.8,24,33.4,49,49.6,27.7c13.4-17.7,30.6-33.4,21.8-57.3s-32.9-37.2-53.8-29.5
				S74.1,144.2,83,168.2z"/>
			<path id="Path_11" class="st2" d="M224.9,125c8.9,24,14.7,75.8-19.7,57.4c-19.6-10.5-41.2-17.6-50.1-41.6s0.9-49.7,21.8-57.3
				S216.1,101,224.9,125z"/>
			<path id="Path_12" class="st2" d="M137.1,340.5c7.7-0.6,15.5,0.5,22.8,3.2l27.5,10.3c14.3,5.5,34.8-5,39.7-14.2
				c7.9-14.5,9.1-40.2,9.9-55c0.3-5.8,0-11.6-0.9-17.2l-13-79c-0.4-2.3-0.7-4.5-0.9-6.8c-1.1-14.2-10.7-13-26.5-12.8l-48.4,0.6
				c-29.1,0.4-42.3,22.5-52.9,51.5c-0.9,2.6-1.7,5.3-2.2,8l-10.8,55.7c-0.8,4.1-1.1,8.2-0.9,12.4c0.8,16.8,7.6,38.8,20.7,43.6
				C106.1,342.6,124.6,341.4,137.1,340.5z"/>
			<circle id="Ellipse_17" class="st2" cx="161.4" cy="167.3" r="27.8"/>
		</g>
		<path id="Path_15_2_" class="st4" d="M227.3,151.4"/>
		<path id="Path_15_1_" class="st4" d="M200.3,158.1"/>
		<path id="Path_18" class="st5" d="M25.2,218.8c0,0,4.5,17.4,31.2,22.1c0,0,5.2,4.4,4.7,7C61.1,247.9,65.8,230.7,25.2,218.8z"/>
		<path id="Path_19" class="st6" d="M191.4,63.2C182,84.8,223,97.1,243.7,89.4s30.9-31.8,22.8-53.9S234.9,1.7,214.2,9.3
			S197.5,49.2,191.4,63.2z"/>
		<path id="Path_20" class="st6" d="M86.1,85.8c19.8,12.7-7.4,45.7-28.9,50.9s-43.4-9.2-48.9-32.1S15.7,59,37.2,53.8
			S73.2,77.6,86.1,85.8z"/>
		<path id="Path_21" class="st1" d="M209.4,61.2c-1.5,1.8-2.6,3.9-3.3,6.1l16.5,12.6c1.8-1.2,3.5-2.7,4.8-4.4
			c5.3-6.8,5.6-15.4,0.6-19.4S214.7,54.4,209.4,61.2z"/>
		<path id="Path_22" class="st1" d="M58.2,114.7c1.9,1.4,4,2.4,6.2,3.1l11.9-17.1c-1.3-1.8-2.9-3.4-4.7-4.6c-7-5-15.6-5-19.4,0.2
			S51.2,109.7,58.2,114.7z"/>
		<circle id="Ellipse_18" class="st7" cx="191.1" cy="131.8" r="6.4"/>
		<circle id="Ellipse_19" class="st7" cx="113.8" cy="150.3" r="6.4"/>
		<path id="Path_23" class="st8" d="M155.3,175.4l2.8-0.9c0,0,1.5-2.4,2.1-2.1c1.1,0.2,2.2,0.4,3.3,0.5l1.6-0.5
			c1-0.2,2.1,0.4,2.3,1.4c1.2,4-0.6,8.1-4,9.2l-0.8,0.2c-3.4,1.1-7.2-1.3-8.5-5.3l0,0C153.8,176.9,154.3,175.8,155.3,175.4z"/>
		<g id="Group_206">
			<path id="Path_24" class="st4" d="M156.1,161.6c0.8,3.5,2,6.9,3.4,10.2c0,0,8.4,3.7,9-4.1"/>
			<path id="Path_25" class="st4" d="M159.6,171.9c0,0-4.5,8-9.7,2.2"/>
		</g>
		<path id="Path_26" class="st9" d="M151.2,161.1c0.6,1.9,3.9,3.7,5.8,3.1s3-4,2.4-5.9s-3.1-1.4-5-0.8
			C152.3,158.2,150.6,159.2,151.2,161.1z"/>
		<path id="Path_27" class="st6" d="M171.5,70.7c0,0,6.6-7.9,4.3-12.9c0,0-12.3-12.7-45.4-11.1c0,0-26.8,11.4-33.3,32.5l8.4,8.2
			C105.6,87.3,132.7,59.2,171.5,70.7z"/>
		<g id="Group_207">
			
				<rect id="Rectangle_535" x="130.7" y="51.4" transform="matrix(0.9727 -0.2321 0.2321 0.9727 -10.0234 32.6715)" class="st1" width="6.4" height="15.1"/>
			
				<rect id="Rectangle_536" x="126.3" y="55.8" transform="matrix(0.9727 -0.2321 0.2321 0.9727 -10.0245 32.6719)" class="st1" width="15.1" height="6.4"/>
		</g>
	</g>
</g>
</svg>
