<svg xmlns="http://www.w3.org/2000/svg" viewBox="0 0 386.82 386.82"><defs><style>.cls-1{fill:#fa5458;}</style></defs><title>Asset 19</title><g id="Layer_2" data-name="Layer 2"><g id="Layer_1-2" data-name="Layer 1"><path class="cls-1" d="M174.07,251.43h38.68v38.68H174.07Zm0-154.73h38.68V212.75H174.07ZM193.21,0C82.75,0-6,92.76.31,204.59c5.49,97.53,85.57,177.2,183.14,182C294.85,392,386.82,303.4,386.82,193.41,386.82,86.65,300.17,0,193.21,0Zm20.3,346.87A154.81,154.81,0,0,1,40,173.3C48.62,104.33,104.33,48.62,173.3,40A154.82,154.82,0,0,1,346.87,213.51C338.19,282.49,282.49,338.19,213.51,346.87Z"/></g></g></svg>