<svg xmlns="http://www.w3.org/2000/svg" viewBox="0 0 270.15 258.2"><defs><style>.cls-1{fill:none;stroke:#fa5458;stroke-linecap:round;stroke-linejoin:round;stroke-width:8.2px;}</style></defs><title>Asset 25</title><g id="Layer_2" data-name="Layer 2"><g id="Layer_1-2" data-name="Layer 1"><path class="cls-1" d="M25.66,216.47h81.55L118.86,182a1.65,1.65,0,0,1,3.14,0l15.43,51.55a1.65,1.65,0,0,0,3.13.09l12.26-33.55a1.65,1.65,0,0,1,3-.2l8.59,16.51h80.07"/><circle class="cls-1" cx="255.34" cy="216.06" r="10.7"/><circle class="cls-1" cx="14.8" cy="216.06" r="10.7"/><rect class="cls-1" x="90.89" y="4.1" width="87.74" height="29.25" rx="14.62"/><rect class="cls-1" x="62.83" y="63.2" width="41.48" height="41.48" rx="11.48"/><rect class="cls-1" x="62.83" y="123.22" width="41.48" height="41.48" rx="11.48"/><path class="cls-1" d="M204.62,76.88H189.35a2.07,2.07,0,0,1-2.07-2.07V59.54a2.07,2.07,0,0,0-2.08-2.07h-10a2.07,2.07,0,0,0-2.08,2.07V74.81a2.07,2.07,0,0,1-2.07,2.07H155.81A2.07,2.07,0,0,0,153.74,79v10A2.06,2.06,0,0,0,155.81,91h15.27a2.07,2.07,0,0,1,2.07,2.08v15.27a2.08,2.08,0,0,0,2.08,2.07h10a2.08,2.08,0,0,0,2.08-2.07V93.08A2.07,2.07,0,0,1,189.35,91h15.27a2.06,2.06,0,0,0,2.07-2.07V79A2.07,2.07,0,0,0,204.62,76.88Z"/><line class="cls-1" x1="119.28" y1="73.38" x2="136.97" y2="73.38"/><line class="cls-1" x1="119.28" y1="94.51" x2="136.89" y2="94.51"/><line class="cls-1" x1="119.28" y1="133.4" x2="136.97" y2="133.4"/><line class="cls-1" x1="180.18" y1="154.58" x2="197.87" y2="154.58"/><line class="cls-1" x1="119.28" y1="154.53" x2="166.02" y2="154.53"/><path class="cls-1" d="M226.74,200V40.21a22,22,0,0,0-22-22H178.6c0,.16,0,.31,0,.47h0A14.63,14.63,0,0,1,164,33.35H105.52A14.63,14.63,0,0,1,90.89,18.72h0c0-.16,0-.31,0-.47H64.74a22,22,0,0,0-22,22V200"/><path class="cls-1" d="M42.79,232.4a22,22,0,0,0,21.95,21.7h140a22,22,0,0,0,21.95-21.7"/></g></g></svg>