<svg xmlns="http://www.w3.org/2000/svg" viewBox="0 0 271.87 258.2"><defs><style>.cls-1{fill:none;stroke:#fa5458;stroke-linecap:round;stroke-linejoin:round;stroke-width:8.2px;}</style></defs><title>Asset 28</title><g id="Layer_2" data-name="Layer 2"><g id="Layer_1-2" data-name="Layer 1"><rect class="cls-1" x="80.56" y="78.48" width="93.91" height="114.23" rx="6.81"/><circle class="cls-1" cx="86.16" cy="222.67" r="9.4"/><circle class="cls-1" cx="127.51" cy="222.67" r="9.4"/><circle class="cls-1" cx="168.86" cy="222.67" r="9.4"/><path class="cls-1" d="M69.76,4.23h45.06a0,0,0,0,1,0,0v6.41A22.53,22.53,0,0,1,92.28,33.16h0A22.53,22.53,0,0,1,69.76,10.63V4.23A0,0,0,0,1,69.76,4.23Z"/><path class="cls-1" d="M54.07,78A24.58,24.58,0,0,1,78.65,53.46h97.72a25.11,25.11,0,0,1,4.1.35V48.15A22.45,22.45,0,0,0,158,25.71H109a22.51,22.51,0,0,1-16.75,7.45h0a22.49,22.49,0,0,1-16.74-7.45h-49A22.45,22.45,0,0,0,4.1,48.15V112a22.45,22.45,0,0,0,22.45,22.45H54.07Z"/><path class="cls-1" d="M54.07,78A24.58,24.58,0,0,1,78.65,53.46h97.72a25.11,25.11,0,0,1,4.1.35V28.68A24.57,24.57,0,0,0,155.89,4.1H28.68A24.57,24.57,0,0,0,4.1,28.68v81.23a24.57,24.57,0,0,0,24.58,24.58H54.07Z"/><path class="cls-1" d="M177.44,16.85a24.47,24.47,0,0,1,3,11.83v4.25H209a42.66,42.66,0,0,1,42.65,42.65h0A42.65,42.65,0,0,1,209,118.23H201v16.09H209a58.74,58.74,0,0,0,58.73-58.74h0A58.73,58.73,0,0,0,209,16.85Z"/><rect class="cls-1" x="54.07" y="53.46" width="146.88" height="200.64" rx="24.58"/></g></g></svg>