
<svg xmlns="http://www.w3.org/2000/svg" width="313.47" height="302.77" viewBox="0 0 313.47 302.77">
  <defs>
    <style>
      .a {
        fill: #fa5458;
      }
    </style>
  </defs>
  <title>Asset 94</title>
  <g>
    <path class="a" d="M197.8,266h-161V36.76H197.8a6.47,6.47,0,0,0,6.47-6.47h0V6.47A6.47,6.47,0,0,0,197.8,0H6.47A6.47,6.47,0,0,0,0,6.47H0V296.3a6.47,6.47,0,0,0,6.47,6.47H197.8a6.47,6.47,0,0,0,6.47-6.47h0V272.48a6.46,6.46,0,0,0-6.46-6.46Z"/>
    <path class="a" d="M311.6,146.81,224.54,59.75a6.66,6.66,0,0,0-9.14,0L194.72,80.41a6.45,6.45,0,0,0,0,9.14h0l39.35,39.33H63.83a6.47,6.47,0,0,0-6.47,6.47h0V167.4a6.47,6.47,0,0,0,6.47,6.47H234.07l-39.35,39.34a6.45,6.45,0,0,0,0,9.14h0L215.37,243a6.45,6.45,0,0,0,9.14,0h0L311.57,156a6.45,6.45,0,0,0,0-9.13l0,0Z"/>
  </g>
</svg>
