<svg xmlns="http://www.w3.org/2000/svg" viewBox="0 0 382.2 258.2"><defs><style>.cls-1{fill:none;stroke:#fa5458;stroke-linecap:round;stroke-linejoin:round;stroke-width:8.2px;}.cls-2{fill:#fa5458;}</style></defs><title>Asset 30</title><g id="Layer_2" data-name="Layer 2"><g id="Layer_1-2" data-name="Layer 1"><path class="cls-1" d="M218.5,21.41h0a59.1,59.1,0,0,0-83.58,0l-5.79,5.79a13,13,0,0,1-18.36,0L105,21.41a59.09,59.09,0,0,0-83.57,0h0a59.09,59.09,0,0,0,0,83.57l15,15,74.39,74.39a13,13,0,0,0,18.36,0L203.52,120l15-15A59.11,59.11,0,0,0,218.5,21.41Z"/><path class="cls-1" d="M28.74,111H72.06L92,52a2.83,2.83,0,0,1,5.39.09L123.8,140.3a2.82,2.82,0,0,0,5.36.16l21-57.43a2.82,2.82,0,0,1,5.16-.33L170,111h40.79"/><path class="cls-1" d="M241.55,230.67h0a80,80,0,0,1-8-103.86L290,49.91a10.08,10.08,0,0,1,16.24,0l56.38,76.9a80,80,0,0,1-7.94,103.86h0A80,80,0,0,1,241.55,230.67Z"/><circle class="cls-1" cx="304.67" cy="192.06" r="37.37"/><path class="cls-2" d="M301,206.16a20.18,20.18,0,0,1,2.76-3.85,52.35,52.35,0,0,1,4-3.89c1.51-1.33,2.55-2.27,3.11-2.8a7.59,7.59,0,0,0,1.34-1.65,3.6,3.6,0,0,0,.49-1.87q0-2.62-3.6-2.62a17.77,17.77,0,0,0-7.21,1.6V183a20.54,20.54,0,0,1,4.47-1.25,31.11,31.11,0,0,1,5.23-.44q5.34,0,8.11,2.49a8.66,8.66,0,0,1,2.79,6.8,9.47,9.47,0,0,1-1,4.56,15.55,15.55,0,0,1-3.36,3.9l-.84.71c-.66.56-1.3,1.15-1.94,1.76a9,9,0,0,0-1.4,1.58h8.72v7.29H301Z"/><circle class="cls-1" cx="335.31" cy="135.8" r="11.1"/></g></g></svg>