<svg xmlns="http://www.w3.org/2000/svg" viewBox="0 0 414.67 258.2"><defs><style>.cls-1{fill:none;stroke:#fa5458;stroke-linecap:round;stroke-linejoin:round;stroke-width:8.2px;}.cls-2{fill:#fa5458;}</style></defs><title>Asset 31</title><g id="Layer_2" data-name="Layer 2"><g id="Layer_1-2" data-name="Layer 1"><path class="cls-1" d="M225.75,28.75H175.27a49.29,49.29,0,1,1-85.3,0H39.49A35.39,35.39,0,0,0,4.1,64.14V218.71A35.4,35.4,0,0,0,39.49,254.1H225.75a35.39,35.39,0,0,0,35.39-35.39V64.14A35.38,35.38,0,0,0,225.75,28.75Z"/><path class="cls-1" d="M211.78,102.69a26.31,26.31,0,0,0-19,8.17,83.16,83.16,0,0,1-120.27,0,26.32,26.32,0,0,0-19-8.17h0a12.84,12.84,0,0,0-12.84,12.84v90.52a12.84,12.84,0,0,0,12.84,12.84H211.78a12.84,12.84,0,0,0,12.83-12.84V115.53a12.84,12.84,0,0,0-12.83-12.84Z"/><circle class="cls-1" cx="132.62" cy="53.4" r="49.3"/><path class="cls-2" d="M132.62,49.55a3.85,3.85,0,1,1-3.85,3.85,3.85,3.85,0,0,1,3.85-3.85m0-8.2a12.05,12.05,0,1,0,12,12,12.05,12.05,0,0,0-12-12Z"/><line class="cls-1" x1="136.48" y1="46.53" x2="147.49" y2="25.68"/><line class="cls-1" x1="357.49" y1="28.07" x2="357.49" y2="253.65"/><line class="cls-1" x1="378.03" y1="44.97" x2="391.73" y2="44.97"/><line class="cls-1" x1="378.03" y1="68.94" x2="410.57" y2="68.94"/><line class="cls-1" x1="378.03" y1="92.91" x2="391.73" y2="92.91"/><line class="cls-1" x1="378.03" y1="116.89" x2="410.57" y2="116.89"/><line class="cls-1" x1="378.03" y1="140.86" x2="391.73" y2="140.86"/><line class="cls-1" x1="378.03" y1="164.83" x2="410.57" y2="164.83"/><line class="cls-1" x1="378.03" y1="188.81" x2="391.73" y2="188.81"/><line class="cls-1" x1="378.03" y1="212.78" x2="410.57" y2="212.78"/><line class="cls-1" x1="378.03" y1="236.75" x2="391.73" y2="236.75"/><line class="cls-1" x1="304.4" y1="44.97" x2="336.94" y2="44.97"/><line class="cls-1" x1="304.4" y1="236.75" x2="336.94" y2="236.75"/><line class="cls-1" x1="320.67" y1="73.88" x2="320.67" y2="207.44"/><line class="cls-1" x1="310.13" y1="81.28" x2="320.65" y2="68.99"/><line class="cls-1" x1="331.21" y1="81.28" x2="320.69" y2="68.99"/><line class="cls-1" x1="331.21" y1="200.44" x2="320.69" y2="212.73"/><line class="cls-1" x1="310.13" y1="200.44" x2="320.65" y2="212.73"/></g></g></svg>